<svg xmlns="http://www.w3.org/2000/svg" viewBox="0 0 900 600" font-family="'Space Grotesk', system-ui, sans-serif">
  <defs>
    <linearGradient id="bg2" x1="0" y1="0" x2="0" y2="1"><stop offset="0%" stop-color="#0a0e14"/><stop offset="100%" stop-color="#0d1117"/></linearGradient>
    <filter id="g2"><feGaussianBlur stdDeviation="3" result="b"/><feMerge><feMergeNode in="b"/><feMergeNode in="SourceGraphic"/></feMerge></filter>
    <marker id="a2c" markerWidth="8" markerHeight="6" refX="8" refY="3" orient="auto"><polygon points="0 0,8 3,0 6" fill="#00ffff"/></marker>
    <marker id="a2g" markerWidth="8" markerHeight="6" refX="8" refY="3" orient="auto"><polygon points="0 0,8 3,0 6" fill="#e6a817"/></marker>
    <marker id="a2m" markerWidth="8" markerHeight="6" refX="8" refY="3" orient="auto"><polygon points="0 0,8 3,0 6" fill="#cc66ff"/></marker>
    <marker id="a2gr" markerWidth="8" markerHeight="6" refX="8" refY="3" orient="auto"><polygon points="0 0,8 3,0 6" fill="#00ff88"/></marker>
    <pattern id="gr2" width="30" height="30" patternUnits="userSpaceOnUse"><path d="M30 0L0 0 0 30" fill="none" stroke="#1a2332" stroke-width=".5"/></pattern>
  </defs>
  <rect width="900" height="600" fill="url(#bg2)" rx="8"/>
  <rect width="900" height="600" fill="url(#gr2)" rx="8"/>
  <text x="450" y="38" text-anchor="middle" fill="#00ffff" font-size="14" font-weight="700" letter-spacing="3" filter="url(#g2)">BROWSER HARNESS + x402 ARCHITECTURE</text>
  <line x1="220" y1="50" x2="680" y2="50" stroke="#00ffff" stroke-width="1" opacity=".3"/>

  <!-- Layer 1: AI Agent -->
  <rect x="250" y="70" width="400" height="80" rx="6" fill="#111820" stroke="#00ffff" stroke-width="2"/>
  <rect x="250" y="70" width="400" height="22" rx="6" fill="#00ffff" opacity=".1"/>
  <text x="450" y="86" text-anchor="middle" fill="#00ffff" font-size="10" font-weight="700" letter-spacing="2">AI AGENT (LLM)</text>
  <text x="450" y="112" text-anchor="middle" fill="#ccdde8" font-size="11">"Find pricing data, pay for premium report,</text>
  <text x="450" y="130" text-anchor="middle" fill="#ccdde8" font-size="11">and summarize results."</text>
  <line x1="450" y1="150" x2="450" y2="190" stroke="#00ffff" stroke-width="1.5" marker-end="url(#a2c)"/>
  <text x="465" y="175" fill="#556677" font-size="8">instructs</text>

  <!-- Layer 2: Browser Harness -->
  <rect x="150" y="190" width="600" height="105" rx="6" fill="#111820" stroke="#e6a817" stroke-width="2"/>
  <rect x="150" y="190" width="600" height="22" rx="6" fill="#e6a817" opacity=".1"/>
  <text x="450" y="206" text-anchor="middle" fill="#e6a817" font-size="10" font-weight="700" letter-spacing="2">BROWSER HARNESS</text>
  <rect x="170" y="222" width="170" height="28" rx="3" fill="#0d1a1a" stroke="#334455" stroke-width=".5"/>
  <text x="255" y="240" text-anchor="middle" fill="#8899aa" font-size="9">🖥️ Real Chrome via CDP</text>
  <rect x="365" y="222" width="170" height="28" rx="3" fill="#0d1a1a" stroke="#334455" stroke-width=".5"/>
  <text x="450" y="240" text-anchor="middle" fill="#8899aa" font-size="9">🔁 Self-healing sessions</text>
  <rect x="560" y="222" width="170" height="28" rx="3" fill="#0d1a1a" stroke="#334455" stroke-width=".5"/>
  <text x="645" y="240" text-anchor="middle" fill="#8899aa" font-size="9">🤖 LLM decides actions</text>
  <text x="450" y="278" text-anchor="middle" fill="#667788" font-size="9">Navigates · Clicks · Types · Fills forms · Detects 402 responses</text>
  <line x1="450" y1="295" x2="450" y2="335" stroke="#e6a817" stroke-width="1.5" marker-end="url(#a2g)"/>
  <text x="465" y="320" fill="#556677" font-size="8">detects 402</text>

  <!-- Layer 3: x402 Payment -->
  <rect x="200" y="335" width="500" height="95" rx="6" fill="#111820" stroke="#cc66ff" stroke-width="2"/>
  <rect x="200" y="335" width="500" height="22" rx="6" fill="#cc66ff" opacity=".1"/>
  <text x="450" y="351" text-anchor="middle" fill="#cc66ff" font-size="10" font-weight="700" letter-spacing="2">x402 PAYMENT LAYER</text>
  <rect x="220" y="368" width="145" height="24" rx="3" fill="#0d1a1a" stroke="#334455" stroke-width=".5"/>
  <text x="292" y="384" text-anchor="middle" fill="#8899aa" font-size="9">💸 Sign USDC tx</text>
  <rect x="378" y="368" width="145" height="24" rx="3" fill="#0d1a1a" stroke="#334455" stroke-width=".5"/>
  <text x="450" y="384" text-anchor="middle" fill="#8899aa" font-size="9">🏦 Facilitator settles</text>
  <rect x="536" y="368" width="145" height="24" rx="3" fill="#0d1a1a" stroke="#334455" stroke-width=".5"/>
  <text x="608" y="384" text-anchor="middle" fill="#8899aa" font-size="9">🔄 Retry + proof</text>
  <text x="450" y="418" text-anchor="middle" fill="#667788" font-size="9">Base · Solana · Avalanche · Polygon · Stellar</text>
  <line x1="450" y1="430" x2="450" y2="470" stroke="#cc66ff" stroke-width="1.5" marker-end="url(#a2m)"/>
  <text x="465" y="455" fill="#556677" font-size="8">pays &amp; retries</text>

  <!-- Layer 4: Web Service -->
  <rect x="250" y="470" width="400" height="65" rx="6" fill="#111820" stroke="#00ff88" stroke-width="2"/>
  <rect x="250" y="470" width="400" height="22" rx="6" fill="#00ff88" opacity=".1"/>
  <text x="450" y="486" text-anchor="middle" fill="#00ff88" font-size="10" font-weight="700" letter-spacing="2">WEB SERVICE / API / DATA</text>
  <text x="450" y="510" text-anchor="middle" fill="#8899aa" font-size="10">✅ Returns 200 OK + full content</text>
  <text x="450" y="526" text-anchor="middle" fill="#556677" font-size="9">No API key · No account · No human</text>

  <!-- Side timing -->
  <line x1="820" y1="80" x2="820" y2="530" stroke="#1a2332" stroke-width="1"/>
  <line x1="815" y1="80" x2="825" y2="80" stroke="#00ffff" stroke-width="1"/>
  <line x1="815" y1="530" x2="825" y2="530" stroke="#00ff88" stroke-width="1"/>
  <text x="850" y="310" text-anchor="middle" fill="#00ffff" font-size="10" font-weight="600" transform="rotate(90,850,310)">~4 SECONDS TOTAL</text>
</svg>
