<svg xmlns="http://www.w3.org/2000/svg" viewBox="0 0 900 520" font-family="'Space Grotesk', system-ui, sans-serif">
  <defs>
    <linearGradient id="bg" x1="0" y1="0" x2="0" y2="1"><stop offset="0%" stop-color="#0a0e14"/><stop offset="100%" stop-color="#0d1117"/></linearGradient>
    <filter id="g"><feGaussianBlur stdDeviation="3" result="b"/><feMerge><feMergeNode in="b"/><feMergeNode in="SourceGraphic"/></feMerge></filter>
    <marker id="ac" markerWidth="8" markerHeight="6" refX="8" refY="3" orient="auto"><polygon points="0 0,8 3,0 6" fill="#00ffff"/></marker>
    <marker id="ag" markerWidth="8" markerHeight="6" refX="8" refY="3" orient="auto"><polygon points="0 0,8 3,0 6" fill="#e6a817"/></marker>
    <marker id="am" markerWidth="8" markerHeight="6" refX="8" refY="3" orient="auto"><polygon points="0 0,8 3,0 6" fill="#cc66ff"/></marker>
    <marker id="agr" markerWidth="8" markerHeight="6" refX="8" refY="3" orient="auto"><polygon points="0 0,8 3,0 6" fill="#00ff88"/></marker>
    <pattern id="gr" width="30" height="30" patternUnits="userSpaceOnUse"><path d="M30 0L0 0 0 30" fill="none" stroke="#1a2332" stroke-width=".5"/></pattern>
  </defs>
  <rect width="900" height="520" fill="url(#bg)" rx="8"/>
  <rect width="900" height="520" fill="url(#gr)" rx="8"/>
  <text x="450" y="42" text-anchor="middle" fill="#00ffff" font-size="14" font-weight="700" letter-spacing="3" filter="url(#g)">x402 PAYMENT FLOW</text>
  <line x1="300" y1="54" x2="600" y2="54" stroke="#00ffff" stroke-width="1" opacity=".3"/>

  <!-- Step 1 -->
  <rect x="40" y="90" width="180" height="70" rx="4" fill="#111820" stroke="#00ffff" stroke-width="1.5"/>
  <text x="130" y="118" text-anchor="middle" fill="#00ffff" font-size="11" font-weight="600">🤖 AI AGENT</text>
  <text x="130" y="138" text-anchor="middle" fill="#8899aa" font-size="10">GET /premium-data</text>
  <line x1="220" y1="125" x2="310" y2="125" stroke="#00ffff" stroke-width="1.5" marker-end="url(#ac)"/>
  <text x="265" y="115" text-anchor="middle" fill="#00ffff" font-size="9" font-weight="600">①</text>

  <!-- Step 2 -->
  <rect x="310" y="80" width="280" height="90" rx="4" fill="#111820" stroke="#e6a817" stroke-width="1.5"/>
  <text x="450" y="105" text-anchor="middle" fill="#e6a817" font-size="11" font-weight="600">⚡ HTTP 402 PAYMENT REQUIRED</text>
  <text x="450" y="125" text-anchor="middle" fill="#8899aa" font-size="9">amount: "0.001" · currency: "USDC"</text>
  <text x="450" y="142" text-anchor="middle" fill="#8899aa" font-size="9">network: "base" · expires: 60s</text>
  <text x="450" y="158" text-anchor="middle" fill="#667788" font-size="8">recipient: 0xABC... · facilitator: https://...</text>
  <path d="M450 170L450 210" stroke="#e6a817" stroke-width="1.5" fill="none" marker-end="url(#ag)"/>
  <text x="465" y="195" fill="#e6a817" font-size="9" font-weight="600">②</text>

  <!-- Step 3 -->
  <rect x="310" y="210" width="280" height="70" rx="4" fill="#111820" stroke="#cc66ff" stroke-width="1.5"/>
  <text x="450" y="238" text-anchor="middle" fill="#cc66ff" font-size="11" font-weight="600">💸 AGENT SIGNS USDC TX</text>
  <text x="450" y="258" text-anchor="middle" fill="#8899aa" font-size="9">Wallet → Facilitator → On-chain proof</text>
  <path d="M450 280L450 320" stroke="#cc66ff" stroke-width="1.5" fill="none" marker-end="url(#am)"/>
  <text x="465" y="305" fill="#cc66ff" font-size="9" font-weight="600">③</text>

  <!-- Step 4 -->
  <rect x="310" y="320" width="280" height="70" rx="4" fill="#111820" stroke="#00ffff" stroke-width="1.5"/>
  <text x="450" y="348" text-anchor="middle" fill="#00ffff" font-size="11" font-weight="600">🔄 RETRY WITH X-PAYMENT</text>
  <text x="450" y="368" text-anchor="middle" fill="#8899aa" font-size="9">GET /premium-data + signed proof</text>
  <path d="M590 355L680 355" stroke="#00ffff" stroke-width="1.5" fill="none" marker-end="url(#ac)"/>
  <text x="635" y="345" fill="#00ffff" font-size="9" font-weight="600">④</text>

  <!-- Step 5 -->
  <rect x="680" y="310" width="180" height="90" rx="4" fill="#111820" stroke="#00ff88" stroke-width="1.5"/>
  <text x="770" y="340" text-anchor="middle" fill="#00ff88" font-size="11" font-weight="600">✅ HTTP 200 OK</text>
  <text x="770" y="360" text-anchor="middle" fill="#8899aa" font-size="9">Payment verified</text>
  <text x="770" y="377" text-anchor="middle" fill="#8899aa" font-size="9">📦 Content delivered</text>

  <!-- Server -->
  <rect x="680" y="90" width="180" height="70" rx="4" fill="#111820" stroke="#556677" stroke-width="1" opacity=".7"/>
  <text x="770" y="118" text-anchor="middle" fill="#8899aa" font-size="11" font-weight="600">🌐 WEB SERVICE</text>
  <text x="770" y="138" text-anchor="middle" fill="#556677" font-size="9">x402 middleware</text>
  <line x1="770" y1="160" x2="770" y2="310" stroke="#334455" stroke-width="1" stroke-dasharray="4,4"/>

  <!-- Timeline -->
  <rect x="40" y="440" width="820" height="50" rx="4" fill="#111820" stroke="#1a2332"/>
  <text x="60" y="470" fill="#00ffff" font-size="10" font-weight="600">⏱ TOTAL</text>
  <rect x="140" y="452" width="300" height="18" rx="3" fill="#0d1a1a" stroke="#00ffff" stroke-width=".5"/>
  <rect x="140" y="452" width="60" height="18" rx="3" fill="#00ffff" opacity=".15"/>
  <text x="170" y="465" text-anchor="middle" fill="#00ffff" font-size="8">~2s Base</text>
  <text x="540" y="465" fill="#e6a817" font-size="10" font-weight="600">~400ms on Solana · Zero humans</text>
</svg>
